<?xml version="1.0" encoding="UTF-8"?>
<svg width="222px" height="103px" viewBox="0 0 222 103" version="1.1" xmlns="http://www.w3.org/2000/svg" xmlns:xlink="http://www.w3.org/1999/xlink">
    <!-- Generator: Sketch 63.1 (92452) - https://sketch.com -->
    <title>gradHats</title>
    <desc>Created with Sketch.</desc>
    <defs>
        <linearGradient x1="-2.31387508e-13%" y1="50.000002%" x2="100%" y2="50.000002%" id="linearGradient-1">
            <stop stop-color="#808080" stop-opacity="0.25" offset="0%"></stop>
            <stop stop-color="#808080" stop-opacity="0.12" offset="53.514%"></stop>
            <stop stop-color="#808080" stop-opacity="0.1" offset="100%"></stop>
        </linearGradient>
    </defs>
    <g id="calculators" stroke="none" stroke-width="1" fill="none" fill-rule="evenodd">
        <g id="529_articleWidgetMobileMap" transform="translate(-73.000000, -192.000000)" fill-rule="nonzero">
            <g id="gradHats" transform="translate(64.947567, 182.787135)">
                <g id="undraw_Graduation_ktn0" transform="translate(173.500000, 60.500000) rotate(20.000000) translate(-173.500000, -60.500000) translate(114.000000, 18.000000)">
                    <ellipse id="Oval" fill="#E0E0E0" transform="translate(4.398551, 42.439090) rotate(-63.610790) translate(-4.398551, -42.439090) " cx="4.39855072" cy="42.4390901" rx="5.18792104" ry="1"></ellipse>
                    <ellipse id="Oval" fill="#E0E0E0" transform="translate(69.223195, 74.633680) rotate(-63.610790) translate(-69.223195, -74.633680) " cx="69.2231952" cy="74.6336802" rx="5.18792104" ry="1"></ellipse>
                    <polygon id="Rectangle" fill="#F55F44" transform="translate(30.478615, 64.902882) rotate(39.547320) translate(-30.478615, -64.902882) " points="28.9222388 59.7149617 32.0349905 59.7149617 32.0349905 70.0908024 28.9222388 70.0908024"></polygon>
                    <polygon id="Rectangle" fill="#000000" opacity="0.05" transform="translate(32.354454, 65.883124) rotate(-166.768900) translate(-32.354454, -65.883124) " points="30.6032809 60.6952041 34.1056268 60.6952041 34.1056268 71.0710447 30.6032809 71.0710447"></polygon>
                    <polygon id="Rectangle" fill="#F55F44" transform="translate(32.544080, 65.927710) rotate(-166.768900) translate(-32.544080, -65.927710) " points="30.9877043 60.7397896 34.100456 60.7397896 34.100456 71.1156302 30.9877043 71.1156302"></polygon>
                    <polygon id="Rectangle" fill="url(#linearGradient-1)" transform="translate(36.813578, 58.522443) rotate(-63.610790) translate(-36.813578, -58.522443) " points="31.3662613 22.336697 42.2608946 22.336697 42.2608946 94.7081893 31.3662613 94.7081893"></polygon>
                    <path d="M66.7530634,79 C65.4923775,78.3980973 1.42125,46.7351695 2.34466861,47.1912111 C5.9008058,41.7887341 6.92638784,38 6.92638784,38 L71.3347826,69.8087889 C71.3347826,69.8087889 69.0729016,73.7599245 66.7530634,79 Z" id="Path" fill="#F5F5F5"></path>
                    <polygon id="Rectangle" fill="#000000" opacity="0.05" transform="translate(35.419389, 57.830687) rotate(26.389210) translate(-35.419389, -57.830687) " points="32.4363343 52.6427669 38.4024429 52.6427669 38.4024429 63.0186075 32.4363343 63.0186075"></polygon>
                    <polygon id="Rectangle" fill="#F55F44" transform="translate(35.419388, 57.830687) rotate(26.389210) translate(-35.419388, -57.830687) " points="32.6957292 52.6427665 38.1430466 52.6427665 38.1430466 63.0186071 32.6957292 63.0186071"></polygon>
                    <polygon id="Rectangle" fill="#000000" opacity="0.05" transform="translate(35.303205, 57.773040) rotate(26.389210) translate(-35.303205, -57.773040) " points="33.487433 52.5851202 37.1189774 52.5851202 37.1189774 62.9609608 33.487433 62.9609608"></polygon>
                    <polygon id="Rectangle" fill="#F55F44" transform="translate(35.303205, 57.773040) rotate(26.389210) translate(-35.303205, -57.773040) " points="33.7468293 52.5851202 36.8595811 52.5851202 36.8595811 62.9609608 33.7468293 62.9609608"></polygon>
                    <circle id="Oval" fill="#DBDBDB" cx="38.8347826" cy="83.5" r="1"></circle>
                    <g id="Group" opacity="0.5" transform="translate(3.334783, 71.000000)" fill="#47E6B1">
                        <rect id="Rectangle" x="1.232385" y="0" width="1" height="3"></rect>
                        <polygon id="Rectangle" transform="translate(1.482385, 1.500000) rotate(90.000000) translate(-1.482385, -1.500000) " points="1.21767912 0.0833333333 1.74709088 0.0833333333 1.74709088 2.91666667 1.21767912 2.91666667"></polygon>
                    </g>
                    <g id="Group" opacity="0.5" transform="translate(115.334783, 40.000000)" fill="#47E6B1">
                        <rect id="Rectangle" x="1.232385" y="0" width="1" height="3"></rect>
                        <polygon id="Rectangle" transform="translate(1.482385, 1.500000) rotate(90.000000) translate(-1.482385, -1.500000) " points="1.21767912 0.0833333333 1.74709088 0.0833333333 1.74709088 2.91666667 1.21767912 2.91666667"></polygon>
                    </g>
                    <g id="Group" opacity="0.5" transform="translate(5.334783, 8.000000)" fill="#47E6B1">
                        <rect id="Rectangle" x="1.232385" y="0" width="1" height="3"></rect>
                        <polygon id="Rectangle" transform="translate(1.482385, 1.500000) rotate(90.000000) translate(-1.482385, -1.500000) " points="1.21767912 0.0833333333 1.74709088 0.0833333333 1.74709088 2.91666667 1.21767912 2.91666667"></polygon>
                    </g>
                    <g id="Group" opacity="0.5" transform="translate(101.334783, 5.000000)" fill="#47E6B1">
                        <rect id="Rectangle" x="1.232385" y="0" width="1" height="3"></rect>
                        <polygon id="Rectangle" transform="translate(1.482385, 1.500000) rotate(90.000000) translate(-1.482385, -1.500000) " points="1.21767912 0.0833333333 1.74709088 0.0833333333 1.74709088 2.91666667 1.21767912 2.91666667"></polygon>
                    </g>
                    <path d="M2.17106986,37.0168911 C1.91525412,36.9054795 1.78362143,36.6199686 1.8650264,36.3530839 C1.87138945,36.333319 1.87539812,36.3128723 1.87696926,36.2921679 L1.87696926,36.2921679 C1.88435264,36.1708841 1.81138232,36.0590925 1.69738313,36.0170395 C1.58338394,35.9749864 1.45529605,36.0126097 1.38214801,36.1096336 L1.38214801,36.1096336 C1.3698977,36.1263988 1.35966786,36.1445506 1.35167057,36.1637127 C1.24025837,36.4195279 0.954747919,36.5511604 0.687863189,36.4697561 C0.668098298,36.4633927 0.647651611,36.4593835 0.626947166,36.4578118 L0.626947166,36.4578118 C0.50566439,36.4504306 0.393874843,36.5234011 0.351822153,36.6373991 C0.309769464,36.7513972 0.347391165,36.8794839 0.444412842,36.9526329 L0.444412842,36.9526329 C0.461177912,36.9648831 0.479329765,36.9751124 0.498491993,36.9831089 C0.754305705,37.0945226 0.885937528,37.3800316 0.804535445,37.6469161 C0.798171915,37.666681 0.794162749,37.6871277 0.792591098,37.7078321 L0.792591098,37.7078321 C0.785207713,37.8291159 0.858178035,37.9409075 0.972177226,37.9829605 C1.08617642,38.0250136 1.21426431,37.9873903 1.28741234,37.8903664 L1.28741234,37.8903664 C1.29966321,37.8736015 1.30989308,37.8554497 1.31788978,37.8362873 C1.42930198,37.5804721 1.71481244,37.4488396 1.98169716,37.5302439 C2.00146276,37.5366066 2.02190985,37.5406157 2.04261468,37.5421882 L2.04261468,37.5421882 C2.1638985,37.5495716 2.27569006,37.4766013 2.31774315,37.3626021 C2.35979625,37.248603 2.32217294,37.1205151 2.22514901,37.0473671 L2.22514901,37.0473671 C2.20838335,37.0351178 2.19023161,37.0248885 2.17106986,37.0168911 Z" id="Path" fill="#4D8AF0" opacity="0.5"></path>
                    <path d="M27.1710699,8.01689114 C26.9152541,7.90547948 26.7836214,7.61996861 26.8650264,7.35308388 C26.8713895,7.33331896 26.8753981,7.31287227 26.8769693,7.29216787 L26.8769693,7.29216787 C26.8843526,7.17088408 26.8113823,7.05909254 26.6973831,7.01703945 C26.5833839,6.97498636 26.455296,7.01260967 26.382148,7.10963358 L26.382148,7.10963358 C26.3698977,7.12639881 26.3596679,7.14455062 26.3516706,7.16371272 C26.2402584,7.41952791 25.9547479,7.55116035 25.6878632,7.46975612 C25.6680983,7.46339267 25.6476516,7.45938351 25.6269472,7.45781177 L25.6269472,7.45781177 C25.5056644,7.45043064 25.3938748,7.52340107 25.3518222,7.63739914 C25.3097695,7.75139721 25.3473912,7.87948386 25.4444128,7.95263292 L25.4444128,7.95263292 C25.4611779,7.96488308 25.4793298,7.97511243 25.498492,7.98310886 C25.7543057,8.09452259 25.8859375,8.38003159 25.8045354,8.64691612 C25.7981719,8.66668098 25.7941627,8.68712768 25.7925911,8.70783213 L25.7925911,8.70783213 C25.7852077,8.82911592 25.858178,8.94090746 25.9721772,8.98296055 C26.0861764,9.02501364 26.2142643,8.98739033 26.2874123,8.89036642 L26.2874123,8.89036642 C26.2996632,8.87360155 26.3098931,8.85544967 26.3178898,8.83628728 C26.429302,8.58047209 26.7148124,8.44883965 26.9816972,8.53024388 C27.0014628,8.53660657 27.0219099,8.54061571 27.0426147,8.54218823 L27.0426147,8.54218823 C27.1638985,8.54957161 27.2756901,8.4766013 27.3177432,8.36260213 C27.3597963,8.24860296 27.3221729,8.1205151 27.225149,8.04736708 L27.225149,8.04736708 C27.2083833,8.03511784 27.1902316,8.02488855 27.1710699,8.01689114 Z" id="Path" fill="#4D8AF0" opacity="0.5"></path>
                    <path d="M58.1710699,84.0168911 C57.9152541,83.9054795 57.7836214,83.6199686 57.8650264,83.3530839 C57.8713895,83.333319 57.8753981,83.3128723 57.8769693,83.2921679 L57.8769693,83.2921679 C57.8843526,83.1708841 57.8113823,83.0590925 57.6973831,83.0170395 C57.5833839,82.9749864 57.455296,83.0126097 57.382148,83.1096336 L57.382148,83.1096336 C57.3698977,83.1263988 57.3596679,83.1445506 57.3516706,83.1637127 C57.2402584,83.4195279 56.9547479,83.5511604 56.6878632,83.4697561 C56.6680983,83.4633927 56.6476516,83.4593835 56.6269472,83.4578118 L56.6269472,83.4578118 C56.5056644,83.4504306 56.3938748,83.5234011 56.3518222,83.6373991 C56.3097695,83.7513972 56.3473912,83.8794839 56.4444128,83.9526329 L56.4444128,83.9526329 C56.4611779,83.9648831 56.4793298,83.9751124 56.498492,83.9831089 C56.7543057,84.0945226 56.8859375,84.3800316 56.8045354,84.6469161 C56.7981719,84.666681 56.7941627,84.6871277 56.7925911,84.7078321 L56.7925911,84.7078321 C56.7852077,84.8291159 56.858178,84.9409075 56.9721772,84.9829605 C57.0861764,85.0250136 57.2142643,84.9873903 57.2874123,84.8903664 L57.2874123,84.8903664 C57.2996632,84.8736015 57.3098931,84.8554497 57.3178898,84.8362873 C57.429302,84.5804721 57.7148124,84.4488396 57.9816972,84.5302439 C58.0014628,84.5366066 58.0219099,84.5406157 58.0426147,84.5421882 L58.0426147,84.5421882 C58.1638985,84.5495716 58.2756901,84.4766013 58.3177432,84.3626021 C58.3597963,84.248603 58.3221729,84.1205151 58.225149,84.0473671 L58.225149,84.0473671 C58.2083833,84.0351178 58.1902316,84.0248885 58.1710699,84.0168911 L58.1710699,84.0168911 Z" id="Path" fill="#4D8AF0" opacity="0.5"></path>
                    <circle id="Oval" fill="#F55F44" opacity="0.5" cx="112.334783" cy="66" r="1"></circle>
                    <circle id="Oval" fill="#4D8AF0" opacity="0.5" cx="92.3347826" cy="71" r="1"></circle>
                    <circle id="Oval" fill="#47E6B1" opacity="0.5" cx="15.3347826" cy="80" r="1"></circle>
                    <circle id="Oval" fill="#F55F44" opacity="0.5" cx="60.3347826" cy="1" r="1"></circle>
                    <path d="M29.9092507,53.1748862 L26.3347826,58.5859467 C26.3347826,58.5859467 27.526272,64.1473145 53.8879741,63.9970072 C80.2496762,63.8467 82.3347826,58.5859467 82.3347826,58.5859467 L77.419889,51.3711993 L62.3773358,41 L29.9092507,53.1748862 Z" id="Path" fill="#1CA8FC"></path>
                    <path d="M29.9092507,53.1748862 L26.3347826,58.5859467 C26.3347826,58.5859467 27.526272,64.1473145 53.8879741,63.9970072 C80.2496762,63.8467 82.3347826,58.5859467 82.3347826,58.5859467 L77.419889,51.3711993 L62.3773358,41 L29.9092507,53.1748862 Z" id="Path" fill="#000000" opacity="0.15"></path>
                    <polygon id="Path" fill="#1CA8FC" points="105.334783 33.5451505 58.9184736 54 2.33478261 33.5451505 54.203166 10 79.6643534 21.7240134 80.5764707 22.1448829"></polygon>
                    <polygon id="Path" fill="#000000" opacity="0.15" points="105.334783 33.5451505 58.9184736 54 2.33478261 33.5451505 54.203166 10 79.6643534 21.7240134 80.5764707 22.1448829"></polygon>
                    <polygon id="Path" fill="#F5F5F5" points="82.3347826 37.9463205 81.3906441 38 80.3347826 21 81.3088188 21.4264538"></polygon>
                    <path d="M30.5049954,32.9958463 L26.3347826,58 C26.3347826,58 56.2709528,48.4395883 82.3347826,58 L78.4624422,31.5250137 C78.4624422,31.5250137 43.4624422,27.2595993 30.5049954,32.9958463 Z" id="Path" fill="#1CA8FC"></path>
                    <ellipse id="Oval" fill="#F5F5F5" cx="81.8347826" cy="40" rx="4.5" ry="3"></ellipse>
                </g>
                <g id="undraw_Graduation_ktn0-Copy" transform="translate(70.500000, 60.500000) rotate(-20.000000) translate(-70.500000, -60.500000) translate(11.000000, 18.000000)">
                    <ellipse id="Oval" fill="#E0E0E0" transform="translate(4.398551, 42.439090) rotate(-63.610790) translate(-4.398551, -42.439090) " cx="4.39855072" cy="42.4390901" rx="5.18792104" ry="1"></ellipse>
                    <ellipse id="Oval" fill="#E0E0E0" transform="translate(69.223195, 74.633680) rotate(-63.610790) translate(-69.223195, -74.633680) " cx="69.2231952" cy="74.6336802" rx="5.18792104" ry="1"></ellipse>
                    <polygon id="Rectangle" fill="#F55F44" transform="translate(30.478615, 64.902882) rotate(39.547320) translate(-30.478615, -64.902882) " points="28.9222388 59.7149617 32.0349905 59.7149617 32.0349905 70.0908024 28.9222388 70.0908024"></polygon>
                    <polygon id="Rectangle" fill="#000000" opacity="0.05" transform="translate(32.354454, 65.883124) rotate(-166.768900) translate(-32.354454, -65.883124) " points="30.6032809 60.6952041 34.1056268 60.6952041 34.1056268 71.0710447 30.6032809 71.0710447"></polygon>
                    <polygon id="Rectangle" fill="#F55F44" transform="translate(32.544080, 65.927710) rotate(-166.768900) translate(-32.544080, -65.927710) " points="30.9877043 60.7397896 34.100456 60.7397896 34.100456 71.1156302 30.9877043 71.1156302"></polygon>
                    <polygon id="Rectangle" fill="url(#linearGradient-1)" transform="translate(36.813578, 58.522443) rotate(-63.610790) translate(-36.813578, -58.522443) " points="31.3662613 22.336697 42.2608946 22.336697 42.2608946 94.7081893 31.3662613 94.7081893"></polygon>
                    <path d="M66.7530634,79 C65.4923775,78.3980973 1.42125,46.7351695 2.34466861,47.1912111 C5.9008058,41.7887341 6.92638784,38 6.92638784,38 L71.3347826,69.8087889 C71.3347826,69.8087889 69.0729016,73.7599245 66.7530634,79 Z" id="Path" fill="#F5F5F5"></path>
                    <polygon id="Rectangle" fill="#000000" opacity="0.05" transform="translate(35.419389, 57.830687) rotate(26.389210) translate(-35.419389, -57.830687) " points="32.4363343 52.6427669 38.4024429 52.6427669 38.4024429 63.0186075 32.4363343 63.0186075"></polygon>
                    <polygon id="Rectangle" fill="#F55F44" transform="translate(35.419388, 57.830687) rotate(26.389210) translate(-35.419388, -57.830687) " points="32.6957292 52.6427665 38.1430466 52.6427665 38.1430466 63.0186071 32.6957292 63.0186071"></polygon>
                    <polygon id="Rectangle" fill="#000000" opacity="0.05" transform="translate(35.303205, 57.773040) rotate(26.389210) translate(-35.303205, -57.773040) " points="33.487433 52.5851202 37.1189774 52.5851202 37.1189774 62.9609608 33.487433 62.9609608"></polygon>
                    <polygon id="Rectangle" fill="#F55F44" transform="translate(35.303205, 57.773040) rotate(26.389210) translate(-35.303205, -57.773040) " points="33.7468293 52.5851202 36.8595811 52.5851202 36.8595811 62.9609608 33.7468293 62.9609608"></polygon>
                    <circle id="Oval" fill="#DBDBDB" cx="38.8347826" cy="83.5" r="1"></circle>
                    <g id="Group" opacity="0.5" transform="translate(3.334783, 71.000000)" fill="#47E6B1">
                        <rect id="Rectangle" x="1.232385" y="0" width="1" height="3"></rect>
                        <polygon id="Rectangle" transform="translate(1.482385, 1.500000) rotate(90.000000) translate(-1.482385, -1.500000) " points="1.21767912 0.0833333333 1.74709088 0.0833333333 1.74709088 2.91666667 1.21767912 2.91666667"></polygon>
                    </g>
                    <g id="Group" opacity="0.5" transform="translate(115.334783, 40.000000)" fill="#47E6B1">
                        <rect id="Rectangle" x="1.232385" y="0" width="1" height="3"></rect>
                        <polygon id="Rectangle" transform="translate(1.482385, 1.500000) rotate(90.000000) translate(-1.482385, -1.500000) " points="1.21767912 0.0833333333 1.74709088 0.0833333333 1.74709088 2.91666667 1.21767912 2.91666667"></polygon>
                    </g>
                    <g id="Group" opacity="0.5" transform="translate(5.334783, 8.000000)" fill="#47E6B1">
                        <rect id="Rectangle" x="1.232385" y="0" width="1" height="3"></rect>
                        <polygon id="Rectangle" transform="translate(1.482385, 1.500000) rotate(90.000000) translate(-1.482385, -1.500000) " points="1.21767912 0.0833333333 1.74709088 0.0833333333 1.74709088 2.91666667 1.21767912 2.91666667"></polygon>
                    </g>
                    <g id="Group" opacity="0.5" transform="translate(101.334783, 5.000000)" fill="#47E6B1">
                        <rect id="Rectangle" x="1.232385" y="0" width="1" height="3"></rect>
                        <polygon id="Rectangle" transform="translate(1.482385, 1.500000) rotate(90.000000) translate(-1.482385, -1.500000) " points="1.21767912 0.0833333333 1.74709088 0.0833333333 1.74709088 2.91666667 1.21767912 2.91666667"></polygon>
                    </g>
                    <path d="M2.17106986,37.0168911 C1.91525412,36.9054795 1.78362143,36.6199686 1.8650264,36.3530839 C1.87138945,36.333319 1.87539812,36.3128723 1.87696926,36.2921679 L1.87696926,36.2921679 C1.88435264,36.1708841 1.81138232,36.0590925 1.69738313,36.0170395 C1.58338394,35.9749864 1.45529605,36.0126097 1.38214801,36.1096336 L1.38214801,36.1096336 C1.3698977,36.1263988 1.35966786,36.1445506 1.35167057,36.1637127 C1.24025837,36.4195279 0.954747919,36.5511604 0.687863189,36.4697561 C0.668098298,36.4633927 0.647651611,36.4593835 0.626947166,36.4578118 L0.626947166,36.4578118 C0.50566439,36.4504306 0.393874843,36.5234011 0.351822153,36.6373991 C0.309769464,36.7513972 0.347391165,36.8794839 0.444412842,36.9526329 L0.444412842,36.9526329 C0.461177912,36.9648831 0.479329765,36.9751124 0.498491993,36.9831089 C0.754305705,37.0945226 0.885937528,37.3800316 0.804535445,37.6469161 C0.798171915,37.666681 0.794162749,37.6871277 0.792591098,37.7078321 L0.792591098,37.7078321 C0.785207713,37.8291159 0.858178035,37.9409075 0.972177226,37.9829605 C1.08617642,38.0250136 1.21426431,37.9873903 1.28741234,37.8903664 L1.28741234,37.8903664 C1.29966321,37.8736015 1.30989308,37.8554497 1.31788978,37.8362873 C1.42930198,37.5804721 1.71481244,37.4488396 1.98169716,37.5302439 C2.00146276,37.5366066 2.02190985,37.5406157 2.04261468,37.5421882 L2.04261468,37.5421882 C2.1638985,37.5495716 2.27569006,37.4766013 2.31774315,37.3626021 C2.35979625,37.248603 2.32217294,37.1205151 2.22514901,37.0473671 L2.22514901,37.0473671 C2.20838335,37.0351178 2.19023161,37.0248885 2.17106986,37.0168911 Z" id="Path" fill="#4D8AF0" opacity="0.5"></path>
                    <path d="M27.1710699,8.01689114 C26.9152541,7.90547948 26.7836214,7.61996861 26.8650264,7.35308388 C26.8713895,7.33331896 26.8753981,7.31287227 26.8769693,7.29216787 L26.8769693,7.29216787 C26.8843526,7.17088408 26.8113823,7.05909254 26.6973831,7.01703945 C26.5833839,6.97498636 26.455296,7.01260967 26.382148,7.10963358 L26.382148,7.10963358 C26.3698977,7.12639881 26.3596679,7.14455062 26.3516706,7.16371272 C26.2402584,7.41952791 25.9547479,7.55116035 25.6878632,7.46975612 C25.6680983,7.46339267 25.6476516,7.45938351 25.6269472,7.45781177 L25.6269472,7.45781177 C25.5056644,7.45043064 25.3938748,7.52340107 25.3518222,7.63739914 C25.3097695,7.75139721 25.3473912,7.87948386 25.4444128,7.95263292 L25.4444128,7.95263292 C25.4611779,7.96488308 25.4793298,7.97511243 25.498492,7.98310886 C25.7543057,8.09452259 25.8859375,8.38003159 25.8045354,8.64691612 C25.7981719,8.66668098 25.7941627,8.68712768 25.7925911,8.70783213 L25.7925911,8.70783213 C25.7852077,8.82911592 25.858178,8.94090746 25.9721772,8.98296055 C26.0861764,9.02501364 26.2142643,8.98739033 26.2874123,8.89036642 L26.2874123,8.89036642 C26.2996632,8.87360155 26.3098931,8.85544967 26.3178898,8.83628728 C26.429302,8.58047209 26.7148124,8.44883965 26.9816972,8.53024388 C27.0014628,8.53660657 27.0219099,8.54061571 27.0426147,8.54218823 L27.0426147,8.54218823 C27.1638985,8.54957161 27.2756901,8.4766013 27.3177432,8.36260213 C27.3597963,8.24860296 27.3221729,8.1205151 27.225149,8.04736708 L27.225149,8.04736708 C27.2083833,8.03511784 27.1902316,8.02488855 27.1710699,8.01689114 Z" id="Path" fill="#4D8AF0" opacity="0.5"></path>
                    <path d="M58.1710699,84.0168911 C57.9152541,83.9054795 57.7836214,83.6199686 57.8650264,83.3530839 C57.8713895,83.333319 57.8753981,83.3128723 57.8769693,83.2921679 L57.8769693,83.2921679 C57.8843526,83.1708841 57.8113823,83.0590925 57.6973831,83.0170395 C57.5833839,82.9749864 57.455296,83.0126097 57.382148,83.1096336 L57.382148,83.1096336 C57.3698977,83.1263988 57.3596679,83.1445506 57.3516706,83.1637127 C57.2402584,83.4195279 56.9547479,83.5511604 56.6878632,83.4697561 C56.6680983,83.4633927 56.6476516,83.4593835 56.6269472,83.4578118 L56.6269472,83.4578118 C56.5056644,83.4504306 56.3938748,83.5234011 56.3518222,83.6373991 C56.3097695,83.7513972 56.3473912,83.8794839 56.4444128,83.9526329 L56.4444128,83.9526329 C56.4611779,83.9648831 56.4793298,83.9751124 56.498492,83.9831089 C56.7543057,84.0945226 56.8859375,84.3800316 56.8045354,84.6469161 C56.7981719,84.666681 56.7941627,84.6871277 56.7925911,84.7078321 L56.7925911,84.7078321 C56.7852077,84.8291159 56.858178,84.9409075 56.9721772,84.9829605 C57.0861764,85.0250136 57.2142643,84.9873903 57.2874123,84.8903664 L57.2874123,84.8903664 C57.2996632,84.8736015 57.3098931,84.8554497 57.3178898,84.8362873 C57.429302,84.5804721 57.7148124,84.4488396 57.9816972,84.5302439 C58.0014628,84.5366066 58.0219099,84.5406157 58.0426147,84.5421882 L58.0426147,84.5421882 C58.1638985,84.5495716 58.2756901,84.4766013 58.3177432,84.3626021 C58.3597963,84.248603 58.3221729,84.1205151 58.225149,84.0473671 L58.225149,84.0473671 C58.2083833,84.0351178 58.1902316,84.0248885 58.1710699,84.0168911 L58.1710699,84.0168911 Z" id="Path" fill="#4D8AF0" opacity="0.5"></path>
                    <circle id="Oval" fill="#F55F44" opacity="0.5" cx="112.334783" cy="66" r="1"></circle>
                    <circle id="Oval" fill="#4D8AF0" opacity="0.5" cx="92.3347826" cy="71" r="1"></circle>
                    <circle id="Oval" fill="#47E6B1" opacity="0.5" cx="15.3347826" cy="80" r="1"></circle>
                    <circle id="Oval" fill="#F55F44" opacity="0.5" cx="60.3347826" cy="1" r="1"></circle>
                    <path d="M29.9092507,53.1748862 L26.3347826,58.5859467 C26.3347826,58.5859467 27.526272,64.1473145 53.8879741,63.9970072 C80.2496762,63.8467 82.3347826,58.5859467 82.3347826,58.5859467 L77.419889,51.3711993 L62.3773358,41 L29.9092507,53.1748862 Z" id="Path" fill="#1CA8FC"></path>
                    <path d="M29.9092507,53.1748862 L26.3347826,58.5859467 C26.3347826,58.5859467 27.526272,64.1473145 53.8879741,63.9970072 C80.2496762,63.8467 82.3347826,58.5859467 82.3347826,58.5859467 L77.419889,51.3711993 L62.3773358,41 L29.9092507,53.1748862 Z" id="Path" fill="#000000" opacity="0.15"></path>
                    <polygon id="Path" fill="#1CA8FC" points="105.334783 33.5451505 58.9184736 54 2.33478261 33.5451505 54.203166 10 79.6643534 21.7240134 80.5764707 22.1448829"></polygon>
                    <polygon id="Path" fill="#000000" opacity="0.15" points="105.334783 33.5451505 58.9184736 54 2.33478261 33.5451505 54.203166 10 79.6643534 21.7240134 80.5764707 22.1448829"></polygon>
                    <polygon id="Path" fill="#F5F5F5" points="82.3347826 37.9463205 81.3906441 38 80.3347826 21 81.3088188 21.4264538"></polygon>
                    <path d="M30.5049954,32.9958463 L26.3347826,58 C26.3347826,58 56.2709528,48.4395883 82.3347826,58 L78.4624422,31.5250137 C78.4624422,31.5250137 43.4624422,27.2595993 30.5049954,32.9958463 Z" id="Path" fill="#1CA8FC"></path>
                    <ellipse id="Oval" fill="#F5F5F5" cx="81.8347826" cy="40" rx="4.5" ry="3"></ellipse>
                </g>
            </g>
        </g>
    </g>
</svg>